HIERARCHY
ROOT Hips
{
	OFFSET -0.179506 -22.333345 2.821913
	CHANNELS 6 Xposition Yposition Zposition Zrotation Yrotation Xrotation 
	JOINT LeftUpLeg
	{
		OFFSET 6.951974 -9.140623 -0.681533
		CHANNELS 3 Zrotation Yrotation Xrotation
		JOINT LeftLeg
		{
			OFFSET 3.427654 -37.519855 -0.449580
			CHANNELS 3 Zrotation Yrotation Xrotation
			JOINT LeftFoot
			{
				OFFSET -1.359570 -39.796059 -4.369333
				CHANNELS 3 Zrotation Yrotation Xrotation
				JOINT LeftToe
				{
					OFFSET 2.635814 -5.579078 11.928840
					CHANNELS 3 Zrotation Yrotation Xrotation
					End Site
					{
						OFFSET 0.000000 0.000000 0.000000
					}
				}
			}
		}
	}
	JOINT RightUpLeg
	{
		OFFSET -6.767048 -9.052170 -0.431982
		CHANNELS 3 Zrotation Yrotation Xrotation
		JOINT RightLeg
		{
			OFFSET -3.829005 -38.256897 -0.885003
			CHANNELS 3 Zrotation Yrotation Xrotation
			JOINT RightFoot
			{
				OFFSET 1.577377 -39.841461 -4.231180
				CHANNELS 3 Zrotation Yrotation Xrotation
				JOINT RightToe
				{
					OFFSET -2.537174 -4.814398 12.334795
					CHANNELS 3 Zrotation Yrotation Xrotation
					End Site
					{
						OFFSET 0.000000 0.000000 0.000000
					}
				}
			}
		}
	}
	JOINT Spine
	{
		OFFSET -0.253288 10.896323 -2.669631
		CHANNELS 3 Zrotation Yrotation Xrotation
		JOINT Spine1
		{
			OFFSET 0.548704 13.518043 0.109247
			CHANNELS 3 Zrotation Yrotation Xrotation
			JOINT Spine2
			{
				OFFSET 0.145701 5.292222 2.542457
				CHANNELS 3 Zrotation Yrotation Xrotation
				JOINT Neck
				{
					OFFSET -0.277840 21.387037 -4.285703
					CHANNELS 3 Zrotation Yrotation Xrotation
					JOINT Head
					{
						OFFSET 0.515184 6.496960 5.134897
						CHANNELS 3 Zrotation Yrotation Xrotation
						End Site
						{
							OFFSET 0.000000 0.000000 0.000000
						}
					}
				}
				JOINT LeftShoulder
				{
					OFFSET 7.884473 12.174932 -3.408961
					CHANNELS 3 Zrotation Yrotation Xrotation
					JOINT LeftArm
					{
						OFFSET 9.097692 3.046888 -0.886815
						CHANNELS 3 Zrotation Yrotation Xrotation
						JOINT LeftForeArm
						{
							OFFSET 25.961220 -1.277207 -2.745643
							CHANNELS 3 Zrotation Yrotation Xrotation
							JOINT LeftHand
							{
								OFFSET 24.923361 0.898606 -0.117091
								CHANNELS 3 Zrotation Yrotation Xrotation
								End Site
								{
									OFFSET 0.000000 0.000000 0.000000
								}
							}
						}
					}
				}
				JOINT RightShoulder
				{
					OFFSET -8.175920 11.883285 -3.861528
					CHANNELS 3 Zrotation Yrotation Xrotation
					JOINT RightArm
					{
						OFFSET -9.601238 3.255117 -0.914307
						CHANNELS 3 Zrotation Yrotation Xrotation
						JOINT RightForeArm
						{
							OFFSET -25.374195 -1.332924 -2.140099
							CHANNELS 3 Zrotation Yrotation Xrotation
							JOINT RightHand
							{
								OFFSET -25.529810 0.777228 -0.555919
								CHANNELS 3 Zrotation Yrotation Xrotation
								End Site
								{
									OFFSET 0.000000 0.000000 0.000000
								}
							}
						}
					}
				}
			}
		}
	}
}
MOTION
Frames: 8
Frame Time: 0.033333
-74.426880 108.038376 32.429321 116.112606 -63.293932 28.321488 22.987432 12.983812 -5.020845 -9.225297 -6.308499 80.582512 -12.049516 17.488520 -10.258352 4.123316 0.021592 -3.982420 -19.075474 -16.974582 -53.945063 1.759158 -10.037825 69.065155 4.984737 -10.870403 10.477465 4.649081 0.426630 1.814731 4.831825 -4.563946 28.602283 -1.453463 0.378037 -6.235135 8.582047 4.979054 -6.746981 -6.988729 -14.623219 -27.100970 14.629623 -0.849074 -28.958573 27.321698 -19.037175 -26.089512 7.124886 -16.072058 -31.322363 31.208638 -39.270306 -31.689282 81.993283 -15.751010 4.260210 -39.633784 19.577447 -24.675812 4.559569 19.217172 -30.325660 -35.461874 29.080824 -32.908291 -82.792329 22.347761 10.612590 
-73.732788 108.212372 32.025261 115.629386 -62.864143 24.162185 22.445984 13.200794 -6.906113 -9.650240 -7.000981 83.166487 -11.292252 17.977642 -10.084915 3.410101 -0.153093 -3.926834 -18.021254 -17.133497 -58.794425 1.928510 -11.285940 59.165361 5.433328 -11.420270 7.810094 4.136005 0.196568 1.872436 5.549156 -5.318421 32.366642 -1.942190 0.961294 -7.786896 9.008164 4.737110 -6.001549 -7.631444 -15.457216 -25.682633 14.648590 0.116017 -28.303582 25.027522 -19.750768 -25.720391 5.519900 -14.867151 -29.212055 32.189685 -41.600788 -31.713407 84.736881 -18.010864 4.039069 -41.317201 20.775873 -25.142379 4.007612 18.489399 -30.031459 -34.933557 29.891239 -31.211196 -85.241928 25.013896 10.895260 
-72.595840 108.307236 31.640085 111.622046 -62.321857 22.515173 22.580590 12.955752 -8.511348 -10.735626 -8.237531 86.523762 -11.139089 17.665797 -9.382980 2.245813 -0.187988 -3.693833 -17.155993 -17.159201 -62.200171 3.243555 -11.883007 47.079797 6.576226 -11.360573 5.964223 3.454627 0.042200 1.801409 5.853359 -5.856801 36.683550 -2.524035 1.354064 -8.829675 9.257760 4.579805 -5.484217 -7.975261 -16.206473 -23.600952 15.259993 1.097548 -26.387778 24.087090 -20.385618 -25.918878 5.846906 -14.400364 -27.540028 33.361296 -43.703063 -32.550289 84.893304 -18.726960 5.302355 -41.401924 21.390369 -25.239901 4.512695 18.392081 -30.218599 -34.829345 29.947942 -31.484549 -86.901010 27.073866 12.163528 
-71.079399 108.226639 31.084415 108.845301 -61.971450 21.023344 22.295045 12.508814 -8.168744 -11.564042 -9.574908 87.129720 -11.078299 18.341689 -8.830407 1.363629 -0.084226 -3.527162 -17.079655 -16.999227 -64.482569 3.321229 -11.728429 37.823197 7.887928 -11.869943 4.902521 2.891142 -0.196787 1.819020 6.221666 -6.567665 39.965269 -3.052928 1.735640 -9.639922 9.691769 4.377778 -4.963566 -8.427669 -16.267167 -21.971495 15.475303 2.372344 -25.843973 23.299807 -21.332052 -26.211962 7.125769 -12.832283 -26.788680 33.388468 -44.226684 -32.835927 84.917485 -19.986396 6.080539 -42.385862 22.570739 -25.672524 3.626139 17.827464 -30.662757 -34.875381 29.716427 -32.496096 -87.449102 28.648354 13.320125 
-68.669220 107.925079 28.919147 106.217404 -60.552573 18.794431 22.036628 11.822709 -7.410454 -12.323899 -11.505324 87.562044 -10.674319 19.007211 -7.713858 0.370808 0.023375 -3.418223 -17.364636 -16.847299 -67.744347 3.439519 -11.006293 29.671555 9.537411 -12.094977 3.469176 2.545240 -0.347279 1.815181 6.676851 -7.619025 42.921105 -3.908787 2.449588 -10.694202 10.109590 4.301069 -3.973953 -9.069128 -17.142533 -19.935653 16.089246 2.902325 -25.668799 23.154985 -21.950511 -26.657875 8.225540 -12.129598 -26.138870 30.242559 -43.625862 -30.449248 84.796408 -19.939420 6.366222 -43.520692 23.348096 -25.922620 2.324115 17.678430 -31.247748 -33.485956 28.826072 -31.765196 -87.664853 29.705203 14.097065 
-65.991699 107.458450 27.307533 104.128101 -59.193968 15.996986 22.141632 11.131915 -4.906823 -12.629761 -13.338641 86.663647 -10.661756 19.881588 -7.569480 -0.299109 0.078706 -3.358823 -18.484618 -17.078325 -71.012913 2.955508 -10.516468 25.178651 10.752103 -12.287224 2.307313 2.274609 -0.329722 1.726311 7.275669 -8.921475 45.191015 -4.772379 3.177799 -11.186712 10.483021 4.284546 -3.452323 -9.449550 -17.402442 -18.565634 16.268649 3.595257 -25.881261 23.321027 -22.771167 -26.966472 9.424000 -11.446426 -25.405773 25.584931 -42.254506 -26.893984 84.323872 -19.537072 6.280995 -44.696242 24.434235 -25.939102 0.010313 17.735170 -32.537639 -30.065104 26.467693 -29.868161 -87.555141 30.833669 15.122105 
-62.718189 106.924911 26.664598 104.275756 -57.849174 10.133539 22.513556 10.729376 -2.308738 -13.199205 -15.316703 85.239273 -10.665402 21.008736 -7.944370 -0.590426 0.132917 -3.345376 -19.622637 -17.400779 -74.641940 2.328576 -9.165709 23.659330 11.659061 -12.286314 0.844609 2.114629 -0.313088 1.590698 7.478577 -10.667942 48.126172 -5.730254 3.913877 -12.047367 11.012829 4.064090 -2.902127 -9.789474 -17.880178 -17.607950 16.611963 4.485963 -25.898249 23.660829 -24.337611 -27.497481 10.834899 -10.954204 -25.227827 20.246119 -38.829561 -23.490194 84.359065 -19.091415 5.818050 -46.809701 25.542925 -26.646071 -2.214132 17.708832 -34.019698 -26.005586 22.884388 -27.910532 -87.519823 32.064417 16.047561 
-59.024746 104.420799 26.031401 104.985354 -56.803089 4.519688 22.316568 10.544475 -0.583441 -12.100395 -16.343954 81.895572 -10.864398 21.911930 -8.608181 -0.804195 0.211783 -3.185592 -20.108355 -17.427216 -78.228517 2.171475 -8.922507 23.040235 12.125333 -12.926265 -1.580476 1.664260 -0.353815 1.522499 7.747217 -11.810925 50.127304 -6.327354 4.036040 -12.728280 11.257422 4.074666 -2.582238 -10.300999 -17.367575 -16.904958 16.749893 5.994593 -26.647131 24.313516 -25.700454 -28.465347 11.625798 -9.597828 -24.265780 14.943197 -34.430757 -20.256989 83.707293 -19.345673 5.785715 -48.686201 27.026169 -27.233410 -4.951809 17.671779 -35.249327 -23.079552 20.388408 -26.987704 -87.189897 32.613843 17.183753 
